<svg width="512" height="512" viewBox="0 0 512 512" fill="none" xmlns="http://www.w3.org/2000/svg">
  <!-- Speech bubble (back-left) -->
  <rect x="28" y="28" width="334" height="272" rx="48" fill="#7BDFFC"/>
  <path d="M196 300 L162 392 L292 300 Z" fill="#7BDFFC"/>

  <!-- Clipboard back page (copy shadow, offset right+down) -->
  <rect x="210" y="108" width="192" height="272" rx="22" fill="#DCDBFF"/>

  <!-- Clipboard front page -->
  <rect x="158" y="82" width="192" height="272" rx="22" fill="#F0EDFF"/>

  <!-- Clipboard clip bar -->
  <rect x="226" y="64" width="56" height="36" rx="14" fill="#727BEB"/>
  <!-- Clip hole -->
  <rect x="238" y="54" width="32" height="22" rx="11" fill="#B6C4F9"/>

  <!-- Text lines -->
  <rect x="184" y="160" width="140" height="12" rx="6" fill="#DCDBFF"/>
  <rect x="184" y="186" width="116" height="12" rx="6" fill="#DCDBFF"/>
  <rect x="184" y="212" width="130" height="12" rx="6" fill="#DCDBFF"/>

  <!-- Kawaii face -->
  <!-- Left eye -->
  <ellipse cx="210" cy="280" rx="15" ry="17" fill="#25383F"/>
  <circle cx="204" cy="273" r="5" fill="white"/>
  <!-- Right eye -->
  <ellipse cx="264" cy="280" rx="15" ry="17" fill="#25383F"/>
  <circle cx="258" cy="273" r="5" fill="white"/>
  <!-- Blush cheeks -->
  <ellipse cx="185" cy="308" rx="21" ry="13" fill="#FFA1AC" opacity="0.8"/>
  <ellipse cx="289" cy="308" rx="21" ry="13" fill="#FFA1AC" opacity="0.8"/>
  <!-- Smile -->
  <path d="M205 322 Q237 346 269 322" stroke="#25383F" stroke-width="9" stroke-linecap="round" fill="none"/>
</svg>
