<svg width="512" height="512" viewBox="0 0 512 512" fill="none" xmlns="http://www.w3.org/2000/svg">
  <!-- Speech bubble (back-left, fills top-left to bottom edge via tail) -->
  <rect x="0" y="0" width="457" height="383" rx="66" fill="#7BDFFC"/>
  <path d="M230 383 L183 512 L361 383 Z" fill="#7BDFFC"/>

  <!-- Clipboard back page (shadow, right edge = 512) -->
  <rect x="249" y="113" width="263" height="383" rx="30" fill="#DCDBFF"/>

  <!-- Clipboard front page -->
  <rect x="178" y="76" width="263" height="383" rx="30" fill="#F0EDFF"/>

  <!-- Clipboard clip bar -->
  <rect x="271" y="51" width="77" height="51" rx="19" fill="#727BEB"/>
  <!-- Clip hole -->
  <rect x="288" y="37" width="44" height="31" rx="15" fill="#B6C4F9"/>

  <!-- Text lines -->
  <rect x="214" y="186" width="192" height="17" rx="8" fill="#DCDBFF"/>
  <rect x="214" y="222" width="159" height="17" rx="8" fill="#DCDBFF"/>
  <rect x="214" y="259" width="178" height="17" rx="8" fill="#DCDBFF"/>

  <!-- Kawaii face -->
  <!-- Left eye -->
  <ellipse cx="249" cy="354" rx="21" ry="24" fill="#25383F"/>
  <circle cx="241" cy="345" r="7" fill="white"/>
  <!-- Right eye -->
  <ellipse cx="323" cy="354" rx="21" ry="24" fill="#25383F"/>
  <circle cx="315" cy="345" r="7" fill="white"/>
  <!-- Blush cheeks -->
  <ellipse cx="215" cy="394" rx="29" ry="18" fill="#FFA1AC" opacity="0.8"/>
  <ellipse cx="357" cy="394" rx="29" ry="18" fill="#FFA1AC" opacity="0.8"/>
  <!-- Smile -->
  <path d="M242 414 Q286 447 330 414" stroke="#25383F" stroke-width="12" stroke-linecap="round" fill="none"/>
</svg>
